<?xml version="1.0" encoding="utf-8"?>
<!-- Svg Vector Icons : http://www.onlinewebfonts.com/icon -->
<!DOCTYPE svg PUBLIC "-//W3C//DTD SVG 1.1//EN" "http://www.w3.org/Graphics/SVG/1.1/DTD/svg11.dtd">
<svg version="1.1" xmlns="http://www.w3.org/2000/svg" xmlns:xlink="http://www.w3.org/1999/xlink" x="0px" y="0px" viewBox="0 0 1000 1000" enable-background="new 0 0 1000 1000" xml:space="preserve">
<metadata> Svg Vector Icons : http://www.onlinewebfonts.com/icon </metadata>
<g><path d="M431,565.5h79.3L298.5,9.6h-76.8L10,565.5h79.3l53.5-152.1h231.5L431,565.5z M165.4,350.6l83.2-231.1c3.4-9.1,6.4-22,9-38.8h1.8c3.1,18.4,6,31.4,8.6,38.8l84,231.1L165.4,350.6L165.4,350.6z"/><path d="M956.1,737.6c-22.6-24.3-52.8-38.6-90.6-42.9v-1.4c30.4-9.8,54.3-26.5,71.6-49.9c17.3-23.4,26-50.5,26-81.1c0-38.5-14.6-69.5-43.8-92.8c-29.2-23.3-68.2-35-117-35H639v555.8h167.6c53.6,0,97.6-14.8,131.9-44.3C972.8,916.5,990,877.9,990,830C990,792.7,978.7,761.9,956.1,737.6z M710.8,497.3h71.8c69.9,0,104.8,26.2,104.8,78.6c0,29.9-9.9,53.3-29.6,70.2c-19.7,16.9-47,25.3-81.6,25.3h-65.3L710.8,497.3L710.8,497.3z M884,901.6c-20.5,17.3-49.5,26-87,26h-86.1V733.9h74.3c86.4,0,129.5,31.9,129.5,95.5C914.7,860.2,904.4,884.3,884,901.6z"/><path d="M455,779.3c-30.3-5.6-58.8-18.4-82.1-39c-60.4-53.3-75.7-139.9-37.3-210.6l-53.9-29.3c-52.1,95.9-31.4,213.4,50.6,285.8c34.5,30.4,77.4,48.8,122.6,54.9V882l107.2-74.8L455,732.4L455,779.3L455,779.3z"/></g>
</svg>